<?xml version="1.0" encoding="iso-8859-1"?>
<!-- Generator: Adobe Illustrator 16.0.0, SVG Export Plug-In . SVG Version: 6.00 Build 0)  -->
<!DOCTYPE svg PUBLIC "-//W3C//DTD SVG 1.1//EN" "http://www.w3.org/Graphics/SVG/1.1/DTD/svg11.dtd">
<svg version="1.1" id="Capa_1" xmlns="http://www.w3.org/2000/svg" xmlns:xlink="http://www.w3.org/1999/xlink" x="0px" y="0px"
	 width="245.693px" height="245.693px" viewBox="0 0 245.693 245.693" style="enable-background:new 0 0 245.693 245.693;"
	 xml:space="preserve">
<g>
	<g>
		<path d="M219.603,0H26.089C12.753,0,1.9,10.854,1.9,24.189v197.314c0,13.335,10.853,24.189,24.189,24.189h193.513
			c13.335,0,24.19-10.854,24.19-24.189V24.189C243.793,10.854,232.938,0,219.603,0z M122.847,210.754
			c-48.476,0-87.91-39.435-87.91-87.908c0-48.477,39.434-87.906,87.91-87.906c48.474,0,87.906,39.434,87.906,87.906
			C210.753,171.326,171.32,210.754,122.847,210.754z"/>
		<path d="M122.847,51.067c-39.579,0-71.783,32.199-71.783,71.779c0,39.587,32.205,71.781,71.783,71.781
			c39.58,0,71.779-32.199,71.779-71.781C194.626,83.261,162.427,51.067,122.847,51.067z M102.689,124.632
			c0,4.451-3.612,8.062-8.063,8.062c-4.452,0-8.063-3.61-8.063-8.062v-5.145c0-4.449,3.612-8.061,8.063-8.061
			c4.451,0,8.063,3.611,8.063,8.061V124.632z M161.818,124.632c0,4.451-3.612,8.062-8.063,8.062s-8.063-3.61-8.063-8.062v-5.145
			c0-4.449,3.612-8.061,8.063-8.061s8.063,3.611,8.063,8.061V124.632z"/>
	</g>
</g>
<g>
</g>
<g>
</g>
<g>
</g>
<g>
</g>
<g>
</g>
<g>
</g>
<g>
</g>
<g>
</g>
<g>
</g>
<g>
</g>
<g>
</g>
<g>
</g>
<g>
</g>
<g>
</g>
<g>
</g>
</svg>
