<?xml version="1.0" encoding="UTF-8" standalone="no"?>
<svg
   xmlns:dc="http://purl.org/dc/elements/1.1/"
   xmlns:cc="http://creativecommons.org/ns#"
   xmlns:rdf="http://www.w3.org/1999/02/22-rdf-syntax-ns#"
   xmlns:svg="http://www.w3.org/2000/svg"
   xmlns="http://www.w3.org/2000/svg"
   xmlns:sodipodi="http://sodipodi.sourceforge.net/DTD/sodipodi-0.dtd"
   xmlns:inkscape="http://www.inkscape.org/namespaces/inkscape"
   version="1.1"
   x="0px"
   y="0px"
   viewBox="0 0 979.70123 455.06195"
   enable-background="new 0 0 1000 1000"
   xml:space="preserve"
   id="svg128"
   sodipodi:docname="switch_off.svg"
   width="979.70123"
   height="455.06195"
   inkscape:version="0.92.2 5c3e80d, 2017-08-06"><defs
     id="defs132" /><sodipodi:namedview
     pagecolor="#ffffff"
     bordercolor="#666666"
     borderopacity="1"
     objecttolerance="10"
     gridtolerance="10"
     guidetolerance="10"
     inkscape:pageopacity="0"
     inkscape:pageshadow="2"
     inkscape:window-width="1400"
     inkscape:window-height="855"
     id="namedview130"
     showgrid="false"
     fit-margin-top="0"
     fit-margin-left="0"
     fit-margin-right="0"
     fit-margin-bottom="0"
     inkscape:zoom="0.642"
     inkscape:cx="489.69132"
     inkscape:cy="226.69289"
     inkscape:window-x="0"
     inkscape:window-y="1"
     inkscape:window-maximized="1"
     inkscape:current-layer="svg128" /><metadata
     id="metadata112"> Svg Vector Icons : http://www.onlinewebfonts.com/icon <rdf:RDF><cc:Work
     rdf:about=""><dc:format>image/svg+xml</dc:format><dc:type
       rdf:resource="http://purl.org/dc/dcmitype/StillImage" /><dc:title></dc:title></cc:Work></rdf:RDF></metadata><g
     id="g126"
     transform="translate(-10.308683,-541.50805)"><g
       transform="matrix(0.1,0,0,-0.1,0,512)"
       id="g124"><path
         d="M 2121.1,-314.3 C 1367.8,-401.7 672.7,-902.5 333,-1601.5 c -429.1,-883.4 -248.5,-1891 466,-2595.8 293.2,-287.4 632.9,-483.4 1042.6,-596 l 190.3,-52.4 h 2960.8 2960.8 l 174.7,46.6 c 596.1,155.3 1083.4,502.8 1403.7,997.9 582.4,902.8 466,2017.2 -293.2,2803.5 -376.7,390.2 -848.5,623.2 -1382.4,685.3 -213.6,23.4 -5523.6,23.4 -5735.2,-1.9 z m 6007,-460.1 c 194.2,-54.4 446.6,-172.8 599.9,-283.4 135.9,-97.1 345.6,-310.6 432.9,-438.8 351.4,-516.4 421.3,-1240.6 178.6,-1828.9 -233,-565 -706.7,-947.5 -1347.4,-1087.2 -93.2,-19.4 -689.2,-25.2 -2989.9,-25.2 -3050.1,0 -2937.5,-3.9 -3232.6,91.3 -924.1,294.9 -1440.5,1273.4 -1192,2261.7 167,671.7 700.9,1182.4 1386.2,1328 155.3,33 335.9,34.9 3087,31.1 l 2922,-3.9 z"
         id="path114"
         inkscape:connector-curvature="0" /><path
         d="m 2109.5,-1213.2 c -236.9,-54.4 -384.4,-128.2 -594.1,-295.1 -240.7,-192.2 -432.9,-510.6 -495.1,-821.3 -151.4,-763 467.9,-1553.2 1256.2,-1607.6 605.7,-40.8 1184.3,363.1 1386.2,970.8 273.7,825.1 -368.9,1735.7 -1252.3,1772.6 -116.5,3.9 -227.2,-1.9 -300.9,-19.4 z m 407.7,-400 c 248.5,-36.9 500.9,-188.3 629,-380.5 322.3,-489.3 159.2,-1192.1 -333.9,-1432.8 -112.6,-56.3 -330.1,-108.7 -450.4,-108.7 -120.3,0 -330.1,50.5 -442.7,106.8 -326.2,165 -499,464 -499,864 0,233 44.6,392.2 157.3,561.1 163.1,244.6 436.8,390.2 764.9,407.7 21.4,-0.1 101,-7.8 174.8,-17.6 z"
         id="path116"
         inkscape:connector-curvature="0" /><path
         d="m 4876.1,-1815.1 c -149.5,-33 -256.3,-93.2 -372.8,-211.6 -122.3,-122.3 -205.8,-283.4 -233,-452.4 -52.4,-310.6 155.3,-673.7 469.8,-821.3 87.4,-40.8 135.9,-50.5 262.1,-50.5 135.9,0 172.8,7.8 283.5,62.1 335.9,167 526.2,553.3 434.9,889.2 -106.7,396.2 -493.1,664.1 -844.5,584.5 z m 324.2,-450.4 c 85.4,-64.1 130.1,-172.8 130.1,-318.4 -2,-198 -79.6,-308.7 -242.7,-349.5 -157.3,-38.8 -322.3,33 -378.6,167 -15.5,36.9 -27.2,124.3 -27.2,196.1 0,159.2 52.4,264 155.3,320.3 91.3,50.5 287.4,40.8 363.1,-15.5 z"
         id="path118"
         inkscape:connector-curvature="0" /><path
         d="m 6221.5,-1817 c -124.2,-52.4 -124.2,-54.4 -124.2,-764.9 0,-553.3 3.9,-648.5 31.1,-689.3 67.9,-102.9 233,-112.6 322.3,-19.4 42.7,46.6 46.6,68 52.4,281.5 l 7.8,231.1 h 250.4 c 244.6,0 250.5,0 308.7,54.4 79.6,69.9 93.2,165 38.8,252.4 -54.4,87.4 -102.9,101 -370.8,101 h -231 v 75.7 77.7 l 312.6,5.8 312.6,5.8 56.3,64.1 c 101,112.6 66,267.9 -71.8,326.2 -91.4,38.7 -805.8,36.7 -895.2,-2.1 z"
         id="path120"
         inkscape:connector-curvature="0" /><path
         d="m 7710.7,-1801.5 c -172.8,-56.3 -174.7,-67.9 -174.7,-782.4 0,-664 3.9,-689.2 116.5,-747.5 75.7,-38.8 132,-36.9 207.8,9.7 79.6,46.6 102.9,130.1 102.9,365 v 178.6 h 254.3 254.3 l 56.3,56.3 c 97.1,99 69.9,266 -54.4,330.1 -23.3,11.6 -141.7,21.3 -275.7,21.3 h -234.9 v 77.7 77.7 h 281.5 c 314.5,0 374.7,15.5 427.1,116.5 38.8,75.7 36.9,132 -9.7,207.7 -25.2,40.8 -60.2,67.9 -110.7,81.5 -71.8,21.4 -782.4,27.2 -840.6,7.8 z"
         id="path122"
         inkscape:connector-curvature="0" /></g></g></svg>